<svg width="33" height="32" viewBox="0 0 33 32" fill="none" xmlns="http://www.w3.org/2000/svg">
<path d="M25.6486 9.48573C25.218 9.48573 24.7976 9.53132 24.3874 9.60223C25.679 -1.779 8.73627 -3.75438 7.30285 7.53568C-2.51833 8.75129 -1.63701 23.6933 8.34626 23.6679C12.3021 23.6679 21.7636 23.6679 25.6536 23.6679C34.9227 23.6274 34.9328 9.52625 25.6536 9.48573H25.6486Z" fill="#32323D"/>
<path d="M20.5532 32C20.381 32 20.2087 31.9544 20.0467 31.8633C19.5604 31.5847 19.3983 30.9617 19.6769 30.4805L23.0249 24.681C23.3035 24.1947 23.9214 24.0276 24.4077 24.3112C24.8939 24.5898 25.056 25.2128 24.7774 25.694L21.4294 31.4935C21.242 31.8177 20.9027 32 20.5532 32Z" fill="#2A6C8C"/>
<path d="M13.7204 32C13.5482 32 13.376 31.9544 13.2139 31.8633C12.7276 31.5847 12.5656 30.9617 12.8441 30.4805L16.1922 24.681C16.4707 24.1947 17.0887 24.0276 17.5749 24.3112C18.0612 24.5898 18.2233 25.2128 17.9447 25.694L14.5967 31.4935C14.4093 31.8177 14.0699 32 13.7204 32Z" fill="#2A6C8C"/>
<path d="M6.88752 32C6.71531 32 6.54309 31.9544 6.38101 31.8633C5.89476 31.5847 5.73268 30.9617 6.01126 30.4805L9.35928 24.681C9.63786 24.1947 10.2558 24.0276 10.742 24.3112C11.2283 24.5898 11.3904 25.2128 11.1118 25.694L7.76378 31.4935C7.57637 31.8177 7.23701 32 6.88752 32Z" fill="#2A6C8C"/>
</svg>
