<svg width="33" height="32" viewBox="0 0 33 32" fill="none" xmlns="http://www.w3.org/2000/svg">
<path d="M25.5864 9.25858C25.1662 9.25858 24.7559 9.30308 24.3554 9.37229C25.6161 -1.7364 9.07914 -3.66448 7.68005 7.35522C-1.90595 8.54173 -1.04573 23.1259 8.69847 23.1012C12.5596 23.1012 21.7946 23.1012 25.5914 23.1012C34.6385 23.0616 34.6484 9.29813 25.5914 9.25858H25.5864ZM8.77757 18.1574C8.17443 18.1574 7.29444 17.7668 7.29444 16.6743C7.29444 15.5817 8.77757 14.2024 8.77757 14.2024C8.77757 14.2024 10.2607 15.5817 10.2607 16.6743C10.2607 17.7668 9.38071 18.1574 8.77757 18.1574ZM12.7128 22.1124C12.1097 22.1124 11.2297 21.7219 11.2297 20.6293C11.2297 19.5367 12.7128 18.1574 12.7128 18.1574C12.7128 18.1574 14.196 19.5367 14.196 20.6293C14.196 21.7219 13.316 22.1124 12.7128 22.1124ZM16.6481 18.1574C16.0449 18.1574 15.1649 17.7668 15.1649 16.6743C15.1649 15.5817 16.6481 14.2024 16.6481 14.2024C16.6481 14.2024 18.1312 15.5817 18.1312 16.6743C18.1312 17.7668 17.2512 18.1574 16.6481 18.1574ZM20.5833 22.1124C19.9802 22.1124 19.1002 21.7219 19.1002 20.6293C19.1002 19.5367 20.5833 18.1574 20.5833 18.1574C20.5833 18.1574 22.0665 19.5367 22.0665 20.6293C22.0665 21.7219 21.1865 22.1124 20.5833 22.1124ZM24.5186 18.1574C23.9154 18.1574 23.0355 17.7668 23.0355 16.6743C23.0355 15.5817 24.5186 14.2024 24.5186 14.2024C24.5186 14.2024 26.0017 15.5817 26.0017 16.6743C26.0017 17.7668 25.1217 18.1574 24.5186 18.1574Z" fill="#32323D"/>
<path d="M10.2607 26.5619C10.2607 27.6544 9.38071 28.045 8.77757 28.045C8.17443 28.045 7.29443 27.6544 7.29443 26.5619C7.29443 25.4693 8.77757 24.09 8.77757 24.09C8.77757 24.09 10.2607 25.4693 10.2607 26.5619Z" fill="#2A6C8C"/>
<path d="M18.1312 26.5619C18.1312 27.6544 17.2512 28.045 16.6481 28.045C16.0449 28.045 15.1649 27.6544 15.1649 26.5619C15.1649 25.4693 16.6481 24.09 16.6481 24.09C16.6481 24.09 18.1312 25.4693 18.1312 26.5619Z" fill="#2A6C8C"/>
<path d="M26.0017 26.5619C26.0017 27.6544 25.1217 28.045 24.5185 28.045C23.9154 28.045 23.0354 27.6544 23.0354 26.5619C23.0354 25.4693 24.5185 24.09 24.5185 24.09C24.5185 24.09 26.0017 25.4693 26.0017 26.5619Z" fill="#2A6C8C"/>
<path d="M22.0665 30.5169C22.0665 31.6095 21.1865 32 20.5834 32C19.9802 32 19.1002 31.6095 19.1002 30.5169C19.1002 29.4243 20.5834 28.045 20.5834 28.045C20.5834 28.045 22.0665 29.4243 22.0665 30.5169Z" fill="#2A6C8C"/>
<path d="M14.196 30.5169C14.196 31.6095 13.316 32 12.7129 32C12.1097 32 11.2297 31.6095 11.2297 30.5169C11.2297 29.4243 12.7129 28.045 12.7129 28.045C12.7129 28.045 14.196 29.4243 14.196 30.5169Z" fill="#2A6C8C"/>
</svg>
