<svg width="33" height="32" viewBox="0 0 33 32" fill="none" xmlns="http://www.w3.org/2000/svg">
<path d="M10.8414 27.5506C11.9336 27.5506 12.8189 26.6652 12.8189 25.5731C12.8189 24.4809 11.9336 23.5956 10.8414 23.5956C9.74925 23.5956 8.86389 24.4809 8.86389 25.5731C8.86389 26.6652 9.74925 27.5506 10.8414 27.5506Z" fill="#788C8F"/>
<path d="M16.9369 27.5506C18.029 27.5506 18.9144 26.6652 18.9144 25.5731C18.9144 24.4809 18.029 23.5956 16.9369 23.5956C15.8447 23.5956 14.9594 24.4809 14.9594 25.5731C14.9594 26.6652 15.8447 27.5506 16.9369 27.5506Z" fill="#788C8F"/>
<path d="M23.0377 27.5506C24.1298 27.5506 25.0152 26.6652 25.0152 25.5731C25.0152 24.4809 24.1298 23.5956 23.0377 23.5956C21.9455 23.5956 21.0602 24.4809 21.0602 25.5731C21.0602 26.6652 21.9455 27.5506 23.0377 27.5506Z" fill="#788C8F"/>
<path d="M19.9874 32C21.0796 32 21.9649 31.1146 21.9649 30.0225C21.9649 28.9303 21.0796 28.045 19.9874 28.045C18.8953 28.045 18.0099 28.9303 18.0099 30.0225C18.0099 31.1146 18.8953 32 19.9874 32Z" fill="#788C8F"/>
<path d="M13.8917 32C14.9839 32 15.8692 31.1146 15.8692 30.0225C15.8692 28.9303 14.9839 28.045 13.8917 28.045C12.7995 28.045 11.9142 28.9303 11.9142 30.0225C11.9142 31.1146 12.7995 32 13.8917 32Z" fill="#788C8F"/>
<path d="M25.2722 9.25858C24.852 9.25858 24.4417 9.30308 24.0412 9.37229C25.3019 -1.7364 8.76493 -3.66448 7.36584 7.35522C-2.22016 8.54173 -1.35994 23.1259 8.38426 23.1012C12.2454 23.1012 21.4804 23.1012 25.2772 23.1012C34.3243 23.0616 34.3342 9.29813 25.2772 9.25858H25.2722ZM13.8916 22.1124C12.7991 22.1124 11.9141 21.2275 11.9141 20.1349C11.9141 19.0423 12.7991 18.1574 13.8916 18.1574C14.9842 18.1574 15.8692 19.0423 15.8692 20.1349C15.8692 21.2275 14.9842 22.1124 13.8916 22.1124ZM19.9873 22.1124C18.8948 22.1124 18.0098 21.2275 18.0098 20.1349C18.0098 19.0423 18.8948 18.1574 19.9873 18.1574C21.0799 18.1574 21.9648 19.0423 21.9648 20.1349C21.9648 21.2275 21.0799 22.1124 19.9873 22.1124Z" fill="#788C8F"/>
</svg>
