<svg width="29" height="32" viewBox="0 0 29 32" fill="none" xmlns="http://www.w3.org/2000/svg">
<path d="M17.1678 12.9374H22.2239L19.2063 17.1879H23.8084L14.7555 25.8446L18.4674 19.391H14.7555L17.1678 12.9374Z" fill="#FFD700"/>
<path d="M8.78695 15.9772H13.843L10.8254 21.1223H15.423L6.37463 32L10.0821 23.7661H6.37463L8.78695 15.9772Z" fill="#FFD700"/>
<path d="M22.8025 8.33527C22.4242 8.33527 22.0548 8.37533 21.6942 8.43764C22.8336 -1.56324 7.94582 -3.29904 6.6818 6.62172C-1.53431 7.64095 -1.21831 19.5735 6.3925 20.704L7.93692 15.7146L8.13275 15.0871H15.4009L14.6131 16.4268L12.3832 20.2277H13.4959L13.9277 19.075L16.34 12.6214L16.5581 12.0428H23.9552L22.9583 13.4492L20.9376 16.2977H26.0337L24.4315 17.8332L21.3293 20.7974H22.8114C30.9563 20.7618 30.9652 8.37088 22.8114 8.33527H22.8025Z" fill="#32323D"/>
</svg>
