<svg width="258" height="52" viewBox="0 0 258 52" fill="none" xmlns="http://www.w3.org/2000/svg">
<path d="M128 52L134.034 47.8459L135.328 42.8125H137.915L141.582 37.5625L142.876 31.8794L258 31V52H128Z" fill="#D2691E"/>
<path d="M117.181 52L111.141 47.9019L109.846 42.9363H107.256L103.586 37.757L102.291 32.1504L0 31.2829V52H117.181Z" fill="#D2691E"/>
<path d="M122.969 32.5842C131.79 32.5842 138.941 25.4334 138.941 16.6125C138.941 7.79166 131.79 0.64093 122.969 0.64093C114.148 0.64093 106.998 7.79166 106.998 16.6125C106.998 25.4334 114.148 32.5842 122.969 32.5842Z" fill="#FFD700"/>
<path d="M101.223 3.85209C102.673 3.85209 104.071 3.85209 105.47 3.85209C107.703 3.85209 109.108 4.73904 109.678 6.50647C110.241 8.24801 109.652 9.75647 107.917 11.0578C107.846 11.116 107.787 11.2002 107.606 11.4074C108.098 11.4074 108.435 11.4074 108.778 11.4074C111.834 11.4074 114.89 11.3944 117.945 11.4074C120.38 11.4203 122.128 13.0453 122.141 15.2595C122.153 17.4736 120.386 19.118 117.965 19.118C94.263 19.118 70.5678 19.118 46.8661 19.118C44.3995 19.118 42.7033 17.5448 42.6968 15.2854C42.6968 13.0259 44.38 11.4138 46.8273 11.4074C51.8641 11.3879 56.8945 11.4074 61.9313 11.4074C62.3068 11.4074 62.6823 11.4074 63.3297 11.4074C62.9025 11.0901 62.7147 10.9542 62.527 10.8118C61.1415 9.75 60.5977 8.08615 61.1156 6.5C61.64 4.9009 63.0384 3.87799 64.7929 3.85209C66.3726 3.83267 67.9523 3.85209 69.5773 3.85209C69.642 3.5996 69.6938 3.40538 69.7391 3.20468C70.134 1.28187 71.5519 0.0258964 73.5329 0.0194223C81.4443 -0.0064741 89.3556 -0.0064741 97.267 0.0194223C99.397 0.0258964 100.621 1.24303 101.223 3.85209Z" fill="#FF690B"/>
<path d="M135.853 20.1798C135.762 19.8496 135.704 19.6813 135.665 19.513C135.153 17.1564 136.552 15.3242 138.98 15.3177C148.328 15.2918 157.67 15.2983 167.019 15.3177C169.11 15.3177 170.547 16.6967 170.541 18.5936C170.541 20.4776 169.091 21.8177 166.993 21.8307C164.157 21.8501 161.322 21.8307 158.395 21.8307C158.447 22.1479 158.486 22.3745 158.525 22.6011C158.946 24.9383 157.541 26.6604 155.165 26.6604C147.364 26.6733 139.562 26.6604 131.761 26.6604C130.757 26.6604 129.747 26.6798 128.744 26.6604C126.828 26.615 125.455 25.2296 125.468 23.3845C125.488 21.5782 126.821 20.2122 128.692 20.1863C131.023 20.1474 133.354 20.1798 135.846 20.1798H135.853Z" fill="#FF690B"/>
<path d="M85.4582 22.5493C94.373 22.5493 103.294 22.5493 112.209 22.5493C112.604 22.5493 113.005 22.5364 113.394 22.5752C114.695 22.7112 115.66 23.7535 115.673 25.0289C115.686 26.2331 114.779 27.3143 113.543 27.5214C113.193 27.5797 112.824 27.5603 112.468 27.5603C94.4183 27.5603 76.3685 27.5603 58.3122 27.5603C57.885 27.5603 57.4447 27.5603 57.0304 27.4567C55.8456 27.1653 55.0363 26.0647 55.114 24.9124C55.1982 23.6758 56.1369 22.7047 57.4059 22.5817C57.8332 22.5428 58.2669 22.5558 58.7007 22.5558C67.6155 22.5558 76.5368 22.5558 85.4517 22.5558L85.4582 22.5493Z" fill="#FF690B"/>
<path d="M192.443 8.97961C190.067 8.97961 187.768 8.97961 185.47 8.97961C183.599 8.97961 182.486 7.98907 182.466 6.34465C182.447 4.64843 183.586 3.59315 185.483 3.58668C192.961 3.5802 200.445 3.58668 207.922 3.58668C210.797 3.58668 211.8 4.74554 211.308 7.63299C212.972 7.63299 214.617 7.63299 216.267 7.63299C218.669 7.63299 219.874 8.54584 219.854 10.3456C219.835 12.1454 218.637 13.0194 216.203 13.0194C209.476 13.0194 202.75 13.0194 196.029 13.0194C193.045 13.0194 192.145 12.0419 192.449 8.97961H192.443Z" fill="#FF690B"/>
<path d="M47.9343 5.47064C50.5564 5.47064 53.1784 5.47064 55.7939 5.47064C57.0628 5.47064 57.7879 6.05979 57.7944 7.06327C57.7944 8.06676 57.0823 8.6559 55.8004 8.66237C50.524 8.66237 45.2476 8.66237 39.9712 8.66237C38.6764 8.66237 37.9836 8.09265 37.9836 7.06975C37.9836 6.05331 38.6828 5.48359 39.9647 5.48359C42.6191 5.47712 45.28 5.48359 47.9343 5.48359V5.47064Z" fill="#FF690B"/>
<path d="M166.514 24.0578C167.589 24.0578 168.67 24.0254 169.745 24.0642C170.806 24.1031 171.46 24.7634 171.486 25.7281C171.518 26.7316 170.839 27.5085 169.757 27.5279C167.569 27.5732 165.381 27.5732 163.193 27.5279C162.105 27.5085 161.419 26.738 161.438 25.741C161.458 24.7829 162.125 24.1031 163.173 24.0642C164.287 24.0189 165.394 24.0578 166.507 24.0513L166.514 24.0578Z" fill="#FF690B"/>
<path d="M185.716 13.7316C184.894 13.7316 184.065 13.7575 183.243 13.7316C182.188 13.6927 181.605 13.1489 181.657 12.249C181.715 11.2844 182.291 10.8635 183.224 10.8635C184.946 10.8635 186.668 10.8765 188.39 10.8635C189.335 10.8571 189.898 11.2973 189.989 12.2296C190.073 13.0712 189.413 13.6927 188.403 13.7316C187.509 13.7639 186.61 13.738 185.716 13.738V13.7316Z" fill="#FF690B"/>
<path d="M21.6494 41.9198C20.8725 41.9328 20.1798 41.9328 19.5712 41.9328C18.9238 41.9328 18.2311 41.9198 17.493 41.9004C16.755 41.881 16.1205 41.8616 15.5961 41.8421C15.5961 42.2371 15.6091 42.6061 15.6414 42.9492C15.6738 43.2923 15.7256 43.6031 15.8033 43.875C16.4119 43.8944 16.878 43.9656 17.2017 44.0822C17.5254 44.1987 17.7391 44.4253 17.8491 44.762C17.9592 45.0986 18.011 45.5971 18.011 46.264V47.384C18.011 48.1479 17.9203 48.6723 17.7455 48.9442C17.5707 49.2161 17.3312 49.4168 17.0399 49.5334C16.8456 49.6111 16.6255 49.6629 16.3924 49.6952C16.1594 49.7276 15.8616 49.7405 15.512 49.7405C14.3725 49.7405 13.4079 49.3521 12.6116 48.5752C11.8153 47.7983 11.2002 46.7366 10.7729 45.377C10.3392 44.0239 10.1255 42.4831 10.1255 40.7545C10.1255 39.5179 10.3003 38.3397 10.6434 37.2196C10.9866 36.0996 11.5433 35.1932 12.3073 34.494C13.0712 33.7948 14.0618 33.4452 15.2854 33.4452C16.0687 33.4452 16.7615 33.5812 17.3636 33.8401C17.9656 34.0991 18.4318 34.5588 18.7749 35.1932C19.118 35.8342 19.3187 36.7082 19.377 37.8282C19.7913 37.8282 20.2251 37.8088 20.6848 37.7699C21.1444 37.7311 21.5653 37.634 21.9343 37.4721C21.9343 36.6499 21.9602 35.8471 22.0055 35.0702C22.0573 34.2933 22.135 33.5747 22.258 32.9079C21.3904 32.4935 20.3546 32.1439 19.1375 31.8461C17.9203 31.5483 16.6449 31.4059 15.3113 31.4059C13.7575 31.4059 12.3461 31.626 11.0707 32.0662C9.79533 32.5065 8.68826 33.1539 7.75599 34.0085C6.82372 34.8631 6.10509 35.9119 5.60659 37.1614C5.10808 38.4109 4.85559 39.8352 4.85559 41.4472C4.85559 43.629 5.26993 45.4935 6.09214 47.0408C6.91436 48.5946 8.09912 49.7794 9.63995 50.6081C11.1808 51.4303 13 51.8446 15.1041 51.8446C16.6579 51.8446 18.0887 51.631 19.4029 51.1972C20.7171 50.7635 21.8307 50.2261 22.7306 49.5787C22.5364 49.1255 22.4069 48.7176 22.3486 48.3551C22.2903 47.9925 22.258 47.4552 22.258 46.7495V45.8949C22.258 45.3446 22.2774 44.9303 22.3162 44.6454C22.3551 44.3606 22.4652 44.1663 22.64 44.0563C22.8148 43.9462 23.0802 43.888 23.4363 43.8685C23.514 43.5513 23.5657 43.2211 23.5852 42.865C23.6046 42.509 23.6175 42.1788 23.6175 41.8616C23.0867 41.881 22.4328 41.8939 21.6559 41.9069L21.6494 41.9198Z" fill="#F0E68C"/>
<path d="M43.9915 49.3133C43.6937 49.1838 43.4348 48.9701 43.1952 48.6659C42.9622 48.3616 42.6967 47.9343 42.3989 47.384C41.8486 46.3222 41.3889 45.5065 41.0264 44.9238C40.6638 44.3476 40.3013 43.8944 39.9387 43.5707C39.6604 43.3182 39.3043 43.0852 38.8899 42.8651C39.5374 42.6967 40.1394 42.4507 40.6897 42.1141C41.4925 41.622 42.127 40.9423 42.5867 40.0682C43.0463 39.1942 43.2794 38.1584 43.2794 36.9607C43.2794 35.9572 43.0334 35.0508 42.5413 34.2351C42.0493 33.4193 41.2789 32.7719 40.2301 32.2929C39.1813 31.8138 37.8282 31.5677 36.1773 31.5677C35.0379 31.5677 33.9437 31.5872 32.8949 31.626C31.8461 31.6649 31.0045 31.6843 30.3765 31.6843C29.4507 31.6843 28.5767 31.6713 27.7415 31.6519C26.9064 31.6325 26.2331 31.6131 25.7216 31.5936C25.7216 31.7879 25.7281 32.1051 25.754 32.5389C25.7734 32.9726 25.8252 33.3222 25.9029 33.6006C26.4532 33.6589 26.8675 33.7689 27.1524 33.9243C27.4373 34.0797 27.6315 34.371 27.7415 34.7919C27.8516 35.2127 27.9034 35.8407 27.9034 36.6629V46.5294C27.9034 47.371 27.8516 48.012 27.7415 48.4457C27.6315 48.8795 27.4373 49.1773 27.1524 49.3456C26.8675 49.514 26.4597 49.6175 25.9288 49.6564C25.8511 49.9089 25.7993 50.2067 25.7669 50.5433C25.7346 50.88 25.7216 51.262 25.7216 51.6893C26.3496 51.6504 27.0423 51.6245 27.7998 51.618C28.5573 51.6051 29.2953 51.6051 30.0269 51.6051C30.4412 51.6051 30.9397 51.6051 31.5289 51.618C32.118 51.631 32.7072 51.6375 33.2963 51.6504C33.8855 51.6569 34.3645 51.6763 34.74 51.6957C34.74 51.3202 34.7271 50.9383 34.7077 50.5498C34.6883 50.1549 34.6365 49.8636 34.5588 49.6629C34.1638 49.6434 33.8596 49.5593 33.633 49.4104C33.4064 49.2615 33.2445 48.9507 33.1474 48.4846C33.0503 48.012 32.9985 47.2998 32.9985 46.3352V43.6096C33.3222 43.6161 33.6265 43.6161 33.8984 43.6096C34.0214 43.6096 34.1638 43.6031 34.2998 43.5966C34.6235 43.8621 34.9148 44.134 35.1544 44.4059C35.4651 44.7684 35.75 45.1893 36.009 45.6748C36.2615 46.1539 36.5398 46.7495 36.8312 47.4552C37.0448 47.9667 37.252 48.4587 37.4527 48.9442C37.6469 49.4233 37.8541 49.9089 38.0742 50.388C38.2879 50.8671 38.5144 51.3656 38.754 51.877C39.382 51.7799 40.2236 51.7087 41.2724 51.6698C42.3212 51.631 43.5125 51.6116 44.8526 51.6116C44.9497 51.3008 45.0209 50.9706 45.0598 50.6405C45.0986 50.3038 45.118 49.9542 45.118 49.5787C44.6648 49.5399 44.2958 49.4557 43.998 49.3262L43.9915 49.3133ZM37.4074 39.8028C37.0254 40.4049 36.5334 40.8451 35.9378 41.13C35.3357 41.4149 34.6883 41.5573 33.9761 41.5573C33.8207 41.5573 33.6524 41.5508 33.4776 41.5314C33.3546 41.5184 33.1863 41.499 33.005 41.4731V33.7754C33.2122 33.7172 33.4193 33.6654 33.6071 33.6395C33.8725 33.6006 34.1638 33.5812 34.4746 33.5812C35.614 33.5812 36.4816 33.9373 37.0837 34.6429C37.6793 35.3486 37.9836 36.3197 37.9836 37.5563C37.9836 38.4627 37.7893 39.2137 37.4074 39.8093V39.8028Z" fill="#F0E68C"/>
<path d="M66.0811 50.5563C66.0423 50.2131 65.984 49.9153 65.9063 49.6564C65.6344 49.6175 65.3819 49.5204 65.1553 49.3586C64.9287 49.2032 64.6892 48.886 64.4367 48.4004C64.1842 47.9213 63.8281 47.2156 63.3749 46.2963L56.7196 31.5095C56.3246 31.5095 55.988 31.5095 55.7031 31.5224C55.4183 31.5354 55.1075 31.5742 54.7773 31.6584L48.5622 46.62C48.245 47.384 47.9795 47.9731 47.7529 48.3874C47.5263 48.8018 47.2933 49.0996 47.0602 49.2873C46.8271 49.4751 46.5423 49.5981 46.2056 49.6564C46.1085 49.993 46.0373 50.3167 45.9985 50.6275C45.9596 50.9447 45.9402 51.2943 45.9402 51.6892C46.238 51.6504 46.6394 51.6245 47.1638 51.618C47.6882 51.6116 48.1867 51.6051 48.6787 51.6051C49.0154 51.6051 49.3909 51.6051 49.8117 51.618C50.2325 51.631 50.6404 51.6374 51.0353 51.6504C51.4302 51.6569 51.7345 51.6763 51.9482 51.6957C51.9482 51.2814 51.9287 50.9123 51.8899 50.5757C51.851 50.2455 51.7928 49.9348 51.7151 49.6628C51.0483 49.5657 50.6339 49.2809 50.4785 48.8083C50.3232 48.3357 50.3685 47.7854 50.6274 47.1574L50.854 46.5617C51.9611 46.4646 53.0811 46.3934 54.2335 46.3611C55.4765 46.3287 56.6743 46.3093 57.8331 46.3028L58.3122 47.3904C58.623 48.1155 58.7201 48.6399 58.5906 48.9636C58.4611 49.2873 58.0532 49.5204 57.367 49.6564C57.2893 49.9089 57.231 50.1937 57.1922 50.511C57.1533 50.8282 57.1339 51.2166 57.1339 51.6892C57.367 51.6698 57.7036 51.6569 58.1374 51.6439C58.5712 51.631 59.0243 51.6245 59.5099 51.6116C59.989 51.5986 60.4422 51.5986 60.863 51.5986H63.1484C63.6987 51.5986 64.2489 51.5986 64.7992 51.6116C65.3495 51.6245 65.8027 51.6439 66.1523 51.6828C66.1523 51.2684 66.1329 50.8929 66.0941 50.5498L66.0811 50.5563ZM51.6244 44.5289L52.8545 41.3177C53.2689 40.3337 53.6185 39.3949 53.9033 38.4885C54.0199 38.1195 54.1299 37.7505 54.24 37.3879C54.3371 37.7375 54.4407 38.0936 54.5507 38.4432C54.8356 39.3367 55.2046 40.3013 55.6578 41.3436L57.0562 44.5224H51.6309L51.6244 44.5289Z" fill="#F0E68C"/>
<path d="M85.3482 31.6584C84.759 31.6778 84.2217 31.6907 83.7296 31.6907C83.4124 31.6907 83.0304 31.6907 82.5643 31.6778C82.1046 31.6713 81.6579 31.6584 81.2241 31.6519C80.7904 31.6454 80.4278 31.626 80.1365 31.6066C80.1365 31.9044 80.1494 32.2281 80.1818 32.5906C80.2142 32.9532 80.266 33.3028 80.3437 33.6394C81.0105 33.6977 81.5155 33.8466 81.8586 34.0797C82.2017 34.3128 82.4348 34.7206 82.5513 35.3033C82.6679 35.886 82.7261 36.7341 82.7261 37.8541V43.7908L73.7724 31.6066C73.397 31.6454 72.9243 31.6713 72.3417 31.6778C71.759 31.6907 71.2346 31.6907 70.7685 31.6907C70.4771 31.6907 70.1016 31.6907 69.6484 31.6778C69.1953 31.6713 68.755 31.6584 68.3213 31.6519C67.8875 31.6454 67.5444 31.626 67.2919 31.6066C67.2919 31.9627 67.3113 32.3123 67.3501 32.6683C67.389 33.0244 67.4473 33.3481 67.5249 33.6394C68.1141 33.6977 68.5414 33.7819 68.8068 33.8919C69.0723 34.002 69.2924 34.2027 69.4672 34.494L69.8232 34.9666V45.4223C69.8232 46.5423 69.752 47.3969 69.6031 47.9861C69.4542 48.5752 69.2212 48.9895 68.8975 49.2226C68.5737 49.4557 68.1141 49.6046 67.5249 49.6628C67.4278 49.9348 67.3631 50.2455 67.3307 50.5757C67.2983 50.9124 67.2854 51.2814 67.2854 51.6957C67.5379 51.6763 67.8875 51.6633 68.3148 51.6504C68.7485 51.6374 69.2017 51.631 69.6873 51.618C70.1728 51.6051 70.5678 51.6051 70.8785 51.6051C71.2152 51.6051 71.5842 51.6051 71.9985 51.618C72.4129 51.631 72.8208 51.6374 73.2351 51.6504C73.6494 51.6569 73.9926 51.6763 74.2645 51.6957C74.2645 51.3396 74.2515 50.9836 74.2321 50.621C74.2127 50.2585 74.1609 49.9412 74.0832 49.6628C73.4746 49.6046 73.0085 49.4557 72.6848 49.2226C72.3611 48.9895 72.141 48.5752 72.0244 47.9861C71.9079 47.3969 71.8496 46.5423 71.8496 45.4223V37.6858L82.4219 51.8381C82.8945 51.8381 83.3153 51.8252 83.6908 51.7928C84.0663 51.7605 84.4159 51.7022 84.7525 51.5986V37.8411C84.7525 36.7017 84.8043 35.8406 84.9014 35.2644C84.9985 34.6883 85.1798 34.2804 85.4453 34.0408C85.7107 33.8078 86.0862 33.6653 86.5782 33.6265C86.6559 33.2704 86.7077 32.9273 86.7271 32.5971C86.7466 32.2605 86.7595 31.9303 86.7595 31.5936C86.4034 31.6131 85.9373 31.6325 85.3482 31.6519V31.6584Z" fill="#F0E68C"/>
<path d="M107.833 37.0642C107.451 35.9572 106.913 35.0443 106.227 34.3257C105.541 33.6071 104.744 33.0568 103.838 32.6618C102.932 32.2669 101.954 32.0015 100.892 31.8526C99.8306 31.7037 98.7559 31.6325 97.6553 31.6325C97.0273 31.6325 96.4446 31.6454 95.9202 31.6584C95.3893 31.6778 94.8973 31.6907 94.4441 31.6907C93.8161 31.6907 93.1428 31.6907 92.4242 31.6778C91.7056 31.6713 91.0323 31.6584 90.4043 31.6519C89.7763 31.6454 89.2454 31.626 88.8116 31.6066C88.8116 31.9044 88.8246 32.2475 88.857 32.6554C88.8893 33.0568 88.9282 33.3869 88.9929 33.6394C89.5432 33.6977 89.9576 33.8142 90.2424 33.9761C90.5273 34.1444 90.7215 34.4358 90.8316 34.8436C90.9416 35.258 90.9934 35.873 90.9934 36.7017V46.4776C90.9934 47.3451 90.9416 47.9925 90.8316 48.4392C90.7215 48.8795 90.5273 49.1838 90.2424 49.3521C89.9576 49.5204 89.5497 49.624 89.0188 49.6628C88.9411 49.8959 88.8893 50.2002 88.857 50.5627C88.8246 50.9253 88.8116 51.3073 88.8116 51.6957C89.1483 51.6957 89.6856 51.6957 90.4302 51.6828C91.1747 51.6698 91.9969 51.6633 92.8903 51.6569C93.7838 51.6439 94.6448 51.6374 95.48 51.6245C96.3151 51.6115 96.9949 51.6115 97.5258 51.6115C98.0567 51.6115 98.6523 51.5727 99.3644 51.495C100.083 51.4173 100.853 51.2619 101.676 51.0224C102.504 50.7893 103.307 50.4333 104.091 49.9606C104.874 49.488 105.593 48.873 106.24 48.1026C106.887 47.3386 107.405 46.3869 107.8 45.2475C108.195 44.1081 108.389 42.742 108.389 41.1559C108.389 39.5697 108.195 38.1843 107.813 37.0772L107.833 37.0642ZM102.737 45.869C102.433 46.9178 102.038 47.7141 101.546 48.258C101.054 48.7953 100.536 49.1643 99.986 49.3456C99.4357 49.5269 98.9371 49.624 98.484 49.624C97.856 49.624 97.3704 49.5334 97.0273 49.3456C96.6842 49.1579 96.4446 48.8277 96.3022 48.3421C96.1662 47.863 96.095 47.1962 96.095 46.3546V33.8272C96.2051 33.7819 96.3216 33.7365 96.464 33.7042C96.8072 33.6135 97.1632 33.5682 97.5387 33.5682C98.2638 33.5682 98.963 33.6977 99.6299 33.9502C100.297 34.2027 100.899 34.63 101.443 35.2321C101.98 35.8342 102.407 36.6564 102.724 37.7052C103.035 38.754 103.197 40.0682 103.197 41.635C103.197 43.4024 103.048 44.8137 102.737 45.8625V45.869Z" fill="#F0E68C"/>
<path d="M146.36 51.864C144.398 51.864 142.67 51.4303 141.174 50.5563C139.685 49.6823 138.52 48.4716 137.685 46.9178C136.85 45.364 136.435 43.5707 136.435 41.5249C136.435 39.8546 136.707 38.385 137.258 37.1225C137.808 35.8536 138.552 34.7983 139.498 33.9567C140.443 33.115 141.517 32.4806 142.722 32.0598C143.932 31.6389 145.182 31.4253 146.477 31.4253C147.597 31.4253 148.697 31.5612 149.791 31.8202C150.879 32.0857 151.947 32.4611 152.99 32.9532C152.873 33.62 152.789 34.3451 152.737 35.135C152.685 35.9183 152.666 36.7146 152.666 37.5174C152.413 37.634 152.025 37.7311 151.501 37.7958C150.983 37.867 150.516 37.8994 150.102 37.8994C150.083 36.7794 149.927 35.8989 149.63 35.2515C149.332 34.6041 148.937 34.1379 148.438 33.8531C147.94 33.5682 147.331 33.4258 146.626 33.4258C145.745 33.4258 144.981 33.6265 144.34 34.0279C143.699 34.4293 143.194 34.9796 142.825 35.6788C142.45 36.378 142.171 37.1613 141.984 38.0354C141.796 38.9094 141.705 39.8157 141.705 40.7609C141.705 42.3924 141.938 43.8556 142.398 45.1504C142.858 46.4452 143.544 47.4681 144.457 48.2126C145.37 48.9572 146.541 49.3327 147.979 49.3327C148.723 49.3327 149.494 49.2226 150.29 48.996C151.086 48.7694 151.876 48.4328 152.659 47.9796C152.834 48.1544 152.996 48.3745 153.132 48.627C153.268 48.886 153.359 49.1449 153.397 49.4233C152.575 50.1096 151.585 50.6922 150.439 51.1584C149.293 51.631 147.927 51.864 146.36 51.864Z" fill="#F0E68C"/>
<path d="M174.639 50.5563C174.6 50.2131 174.542 49.9153 174.464 49.6564C174.186 49.6175 173.94 49.5204 173.713 49.3586C173.487 49.2032 173.247 48.886 172.988 48.4004C172.736 47.9213 172.38 47.2156 171.926 46.2963L165.271 31.5095C164.876 31.5095 164.539 31.5095 164.255 31.5224C163.97 31.5354 163.659 31.5742 163.329 31.6584L157.114 46.62C156.796 47.384 156.531 47.9731 156.304 48.3874C156.078 48.8018 155.845 49.0996 155.612 49.2873C155.379 49.4751 155.094 49.5981 154.757 49.6564C154.66 49.993 154.589 50.3167 154.55 50.6275C154.511 50.9382 154.492 51.2943 154.492 51.6892C154.789 51.6504 155.191 51.6245 155.715 51.618C156.233 51.6051 156.738 51.6051 157.23 51.6051C157.567 51.6051 157.942 51.6051 158.363 51.618C158.784 51.631 159.192 51.6374 159.587 51.6504C159.982 51.6569 160.286 51.6763 160.5 51.6957C160.5 51.2814 160.48 50.9123 160.441 50.5757C160.402 50.2455 160.344 49.9348 160.266 49.6628C159.6 49.5657 159.185 49.2809 159.03 48.8083C158.875 48.3357 158.92 47.7854 159.179 47.1574L159.405 46.5617C160.512 46.4646 161.633 46.3934 162.785 46.3611C164.028 46.3287 165.226 46.3093 166.391 46.3028L166.87 47.3904C167.181 48.1155 167.278 48.6399 167.148 48.9636C167.019 49.2873 166.611 49.5204 165.925 49.6564C165.847 49.9089 165.789 50.1937 165.75 50.511C165.711 50.8282 165.692 51.2166 165.692 51.6892C165.925 51.6698 166.261 51.6569 166.695 51.6439C167.129 51.631 167.582 51.6245 168.068 51.6116C168.547 51.5986 169 51.5986 169.421 51.5986H171.706C172.257 51.5986 172.807 51.5986 173.357 51.6116C173.907 51.6245 174.361 51.6439 174.71 51.6828C174.71 51.2684 174.691 50.8929 174.652 50.5498L174.639 50.5563ZM160.176 44.5289L161.406 41.3177C161.82 40.3337 162.163 39.3949 162.455 38.4885C162.571 38.1195 162.681 37.7505 162.791 37.3879C162.888 37.7375 162.992 38.0936 163.102 38.4432C163.387 39.3367 163.756 40.3013 164.209 41.3436L165.608 44.5224H160.182L160.176 44.5289Z" fill="#F0E68C"/>
<path d="M193.899 31.6584C193.31 31.6778 192.766 31.6907 192.281 31.6907C191.964 31.6907 191.582 31.6907 191.116 31.6778C190.656 31.6713 190.209 31.6584 189.775 31.6519C189.342 31.6454 188.979 31.626 188.688 31.6066C188.688 31.9044 188.701 32.2281 188.733 32.5906C188.765 32.9532 188.817 33.3028 188.895 33.6394C189.562 33.6977 190.067 33.8466 190.41 34.0797C190.753 34.3128 190.986 34.7206 191.103 35.3033C191.219 35.886 191.277 36.7341 191.277 37.8541V43.7908L182.324 31.6066C181.948 31.6454 181.476 31.6713 180.893 31.6778C180.31 31.6907 179.786 31.6907 179.32 31.6907C179.022 31.6907 178.653 31.6907 178.2 31.6778C177.747 31.6713 177.306 31.6584 176.873 31.6519C176.439 31.6454 176.096 31.626 175.843 31.6066C175.843 31.9627 175.863 32.3123 175.901 32.6683C175.94 33.0244 175.999 33.3481 176.076 33.6394C176.665 33.6977 177.093 33.7819 177.358 33.8919C177.624 34.002 177.844 34.2027 178.018 34.494L178.375 34.9666V45.4223C178.375 46.5423 178.303 47.3969 178.154 47.9861C178.005 48.5752 177.772 48.9895 177.449 49.2226C177.125 49.4557 176.665 49.6046 176.076 49.6628C175.979 49.9348 175.914 50.2455 175.888 50.5757C175.856 50.9124 175.843 51.2814 175.843 51.6957C176.096 51.6763 176.439 51.6633 176.873 51.6504C177.306 51.6374 177.759 51.631 178.245 51.618C178.724 51.6051 179.126 51.6051 179.436 51.6051C179.766 51.6051 180.142 51.6051 180.556 51.618C180.971 51.631 181.378 51.6374 181.793 51.6504C182.207 51.6569 182.55 51.6763 182.822 51.6957C182.822 51.3396 182.809 50.9836 182.796 50.621C182.777 50.2585 182.725 49.9412 182.647 49.6628C182.039 49.6046 181.573 49.4557 181.249 49.2226C180.925 48.9895 180.705 48.5752 180.589 47.9861C180.472 47.3969 180.414 46.5423 180.414 45.4223V37.6858L190.986 51.8381C191.459 51.8381 191.879 51.8252 192.255 51.7928C192.63 51.7605 192.98 51.7022 193.317 51.5986V37.8411C193.317 36.7017 193.369 35.8406 193.466 35.2644C193.563 34.6883 193.744 34.2804 194.009 34.0408C194.275 33.8013 194.65 33.6653 195.142 33.6265C195.22 33.2704 195.272 32.9273 195.291 32.5971C195.311 32.2605 195.317 31.9303 195.317 31.5936C194.961 31.6131 194.495 31.6325 193.906 31.6519L193.899 31.6584Z" fill="#F0E68C"/>
<path d="M213.192 31.6713C212.739 31.6842 212.286 31.6842 211.839 31.6842C211.289 31.6842 210.771 31.6842 210.292 31.6713C209.813 31.6648 209.327 31.6454 208.835 31.626C208.835 32.0403 208.861 32.3964 208.906 32.7007C208.958 33.005 209.016 33.3157 209.101 33.6265C209.709 33.6847 210.085 33.9113 210.234 34.3063C210.382 34.7012 210.279 35.2709 209.923 36.0154C209.567 36.8376 209.172 37.757 208.732 38.7669C208.317 39.7121 207.89 40.7415 207.45 41.8356C207.029 40.7739 206.608 39.7445 206.194 38.754C205.753 37.6922 205.365 36.7923 205.028 36.0413C204.711 35.3162 204.575 34.7465 204.614 34.3322C204.653 33.9178 204.996 33.6718 205.643 33.5941C205.702 33.2963 205.753 33.005 205.792 32.7072C205.831 32.4093 205.851 32.0468 205.851 31.6195C205.475 31.6389 204.989 31.6519 204.394 31.6648C203.798 31.6778 203.196 31.6778 202.594 31.6778H199.784C199.253 31.6778 198.71 31.6778 198.146 31.6648C197.59 31.6584 197.098 31.6389 196.69 31.6195C196.69 32.0338 196.703 32.3899 196.735 32.6942C196.767 32.9985 196.819 33.3092 196.897 33.62C197.292 33.6588 197.641 33.8013 197.959 34.0473C198.269 34.2933 198.587 34.7271 198.904 35.3551L203.203 44.1793V46.1085C203.203 47.112 203.144 47.8501 203.028 48.3356C202.911 48.8212 202.646 49.1384 202.232 49.2938C201.817 49.4492 201.17 49.5657 200.289 49.6499C200.173 49.9218 200.095 50.239 200.056 50.5951C200.017 50.9512 199.985 51.3137 199.966 51.6828C200.496 51.6633 201.073 51.6504 201.701 51.6374C202.329 51.6245 202.989 51.618 203.675 51.6051C204.362 51.5921 205.028 51.5921 205.676 51.5921C206.64 51.5921 207.618 51.5921 208.621 51.6051C209.625 51.618 210.525 51.6374 211.334 51.6763C211.334 51.2619 211.321 50.9123 211.289 50.6145C211.263 50.3167 211.185 49.993 211.069 49.6434C210.285 49.5657 209.69 49.4298 209.288 49.2485C208.887 49.0607 208.621 48.7241 208.492 48.2321C208.363 47.74 208.298 47.002 208.298 46.0244V44.257L212.007 36.2485C212.461 35.3033 212.849 34.6559 213.186 34.2868C213.522 33.9243 213.885 33.6912 214.273 33.5941C214.351 33.3416 214.409 33.0503 214.448 32.7266C214.487 32.4029 214.506 32.0338 214.506 31.6195C214.073 31.6389 213.632 31.6519 213.179 31.6648L213.192 31.6713Z" fill="#F0E68C"/>
<path d="M224.625 51.864C222.541 51.864 220.754 51.4303 219.265 50.5563C217.776 49.6823 216.617 48.4781 215.801 46.9308C214.985 45.3835 214.578 43.5966 214.578 41.5573C214.578 40.0035 214.83 38.6051 215.329 37.362C215.827 36.1125 216.526 35.0508 217.42 34.1638C218.313 33.2834 219.375 32.6036 220.599 32.131C221.829 31.6584 223.169 31.4253 224.619 31.4253C226.639 31.4253 228.406 31.8332 229.908 32.6489C231.41 33.4646 232.582 34.6106 233.43 36.0802C234.272 37.5498 234.699 39.2913 234.699 41.2918C234.699 42.8456 234.466 44.2634 233.993 45.5453C233.521 46.8337 232.848 47.9472 231.961 48.886C231.08 49.8312 230.018 50.5627 228.782 51.0807C227.545 51.5986 226.16 51.864 224.625 51.864ZM225.033 49.7729C225.979 49.7729 226.768 49.4427 227.416 48.7888C228.063 48.1285 228.562 47.2156 228.905 46.0503C229.248 44.885 229.423 43.5124 229.423 41.9392C229.423 40.366 229.209 38.9417 228.775 37.6534C228.342 36.365 227.733 35.3421 226.95 34.5782C226.166 33.8142 225.24 33.4323 224.179 33.4323C223.292 33.4323 222.528 33.7301 221.88 34.3192C221.233 34.9084 220.735 35.75 220.378 36.8506C220.022 37.9512 219.848 39.2784 219.848 40.8257C219.848 42.0234 219.958 43.1628 220.171 44.244C220.385 45.3252 220.709 46.2834 221.129 47.1185C221.55 47.9537 222.088 48.6076 222.735 49.0802C223.382 49.5528 224.146 49.7859 225.033 49.7859V49.7729Z" fill="#F0E68C"/>
<path d="M254.516 31.6584C253.927 31.6778 253.383 31.6907 252.898 31.6907C252.581 31.6907 252.199 31.6907 251.732 31.6778C251.273 31.6713 250.826 31.6584 250.392 31.6519C249.959 31.6454 249.596 31.626 249.305 31.6066C249.305 31.9044 249.318 32.2281 249.35 32.5906C249.382 32.9532 249.434 33.3028 249.512 33.6394C250.179 33.6977 250.684 33.8466 251.027 34.0797C251.37 34.3128 251.603 34.7206 251.72 35.3033C251.836 35.886 251.894 36.7341 251.894 37.8541V43.7908L242.941 31.6066C242.565 31.6454 242.093 31.6713 241.51 31.6778C240.927 31.6907 240.403 31.6907 239.937 31.6907C239.639 31.6907 239.27 31.6907 238.817 31.6778C238.363 31.6713 237.923 31.6584 237.489 31.6519C237.056 31.6454 236.713 31.626 236.46 31.6066C236.46 31.9627 236.48 32.3123 236.518 32.6683C236.557 33.0244 236.615 33.3481 236.693 33.6394C237.282 33.6977 237.71 33.7819 237.975 33.8919C238.24 34.002 238.461 34.2027 238.635 34.494L238.991 34.9666V45.4223C238.991 46.5423 238.92 47.3969 238.771 47.9861C238.622 48.5752 238.389 48.9895 238.066 49.2226C237.742 49.4557 237.282 49.6046 236.693 49.6628C236.596 49.9348 236.531 50.2455 236.505 50.5757C236.473 50.9124 236.46 51.2814 236.46 51.6957C236.713 51.6763 237.056 51.6633 237.489 51.6504C237.923 51.6374 238.376 51.631 238.862 51.618C239.341 51.6051 239.742 51.6051 240.053 51.6051C240.383 51.6051 240.759 51.6051 241.173 51.618C241.588 51.631 241.995 51.6374 242.41 51.6504C242.824 51.6569 243.167 51.6763 243.439 51.6957C243.439 51.3396 243.426 50.9836 243.413 50.621C243.394 50.2585 243.342 49.9412 243.264 49.6628C242.656 49.6046 242.19 49.4557 241.866 49.2226C241.542 48.9895 241.322 48.5752 241.206 47.9861C241.089 47.3969 241.031 46.5423 241.031 45.4223V37.6858L251.603 51.8381C252.076 51.8381 252.496 51.8252 252.872 51.7928C253.247 51.7605 253.597 51.7022 253.934 51.5986V37.8411C253.934 36.7017 253.985 35.8406 254.083 35.2644C254.18 34.6883 254.361 34.2804 254.626 34.0408C254.892 33.8013 255.267 33.6653 255.759 33.6265C255.837 33.2704 255.889 32.9273 255.908 32.5971C255.928 32.2605 255.934 31.9303 255.934 31.5936C255.578 31.6131 255.112 31.6325 254.523 31.6519L254.516 31.6584Z" fill="#F0E68C"/>
</svg>
